<svg xmlns="http://www.w3.org/2000/svg" viewBox="0 0 380 350" fill="none"><defs><linearGradient id="lavender" x2="0.8" y2="1"><stop stop-color="#C6B7FF"/><stop offset="1" stop-color="#9782E4"/></linearGradient><linearGradient id="coral" x2="1" y2="1"><stop stop-color="#FFAD83"/><stop offset="1" stop-color="#F47A52"/></linearGradient><linearGradient id="paper" x2="0.4" y2="1"><stop stop-color="#FFFDF5"/><stop offset="1" stop-color="#F4EAD7"/></linearGradient><linearGradient id="mint" x2="1" y2="1"><stop stop-color="#CAF0C0"/><stop offset="1" stop-color="#8ACDA5"/></linearGradient><filter id="shadow" x="-40%" y="-40%" width="180%" height="200%"><feDropShadow dx="0" dy="9" stdDeviation="8" flood-color="#342841" flood-opacity=".12"/></filter><filter id="soft" x="-50%" y="-50%" width="200%" height="200%"><feGaussianBlur stdDeviation="9"/></filter></defs>
<ellipse cx="191" cy="314" rx="115" ry="9" fill="#467963" opacity=".16" filter="url(#soft)"/>
<g data-motion="orbit"><ellipse cx="188" cy="189" rx="155" ry="111" stroke="#8CB796" stroke-width="2" stroke-dasharray="4 9" transform="rotate(-20 188 189)"/></g>
<g data-motion="hero" filter="url(#shadow)"><path d="m84 133 102-45 110 47-104 49Z" fill="#D3C6FB"/><path d="m84 133 108 51v119L84 250Z" fill="#A08ADD"/><path d="m192 184 104-49v116l-104 52Z" fill="#8770CE"/><path d="m185 107 88 37" stroke="#F5EFFF" stroke-width="4" stroke-linecap="round"/><path d="m99 163 75 35v83l-75-36Z" fill="#B6A2EC"/><path d="m108 179 56 26v57l-56-26Z" stroke="#DCD0FF" stroke-width="2"/><ellipse cx="137" cy="220" rx="13" ry="17" fill="#F3EBC8" transform="rotate(-18 137 220)"/><path d="m138 215-1 10" stroke="#665486" stroke-width="3" stroke-linecap="round"/><path d="m210 201 68-32" stroke="#B5A1F0" stroke-width="3" stroke-linecap="round"/><path d="m210 222 47-22" stroke="#B5A1F0" stroke-width="3" stroke-linecap="round"/></g>
<g data-motion="coin" filter="url(#shadow)"><ellipse cx="182" cy="69" rx="42" ry="43" fill="#DDAA49" transform="rotate(-16 182 69)"/><circle cx="176" cy="63" r="41" fill="#F8D876"/><circle cx="176" cy="63" r="32" stroke="#FFEEB2" stroke-width="2.5"/><path d="M176.00,40.00 182.36,56.64 199.00,63.00 182.36,69.36 176.00,86.00 169.64,69.36 153.00,63.00 169.64,56.64Z" fill="#BB883B"/><path d="M153 44a27 27 0 0 1 31-7" stroke="#FFF4CD" stroke-width="3" stroke-linecap="round"/></g>
<g transform="rotate(14 294 258)"><g data-motion="satellite" data-delay="300" filter="url(#shadow)"><rect x="254" y="218" width="79" height="79" rx="25" fill="#EF9675"/><path d="m275 255 13 13 26-28" stroke="#FFF7E3" stroke-width="7" stroke-linecap="round" stroke-linejoin="round"/></g></g>
<g data-motion="spark"><path d="M58.00,58.00 62.95,71.05 76.00,76.00 62.95,80.95 58.00,94.00 53.05,80.95 40.00,76.00 53.05,71.05Z" fill="#7BA48E"/><path d="M305.00,72.00 308.54,80.46 317.00,84.00 308.54,87.54 305.00,96.00 301.46,87.54 293.00,84.00 301.46,80.46Z" fill="#DCA650"/><circle cx="45" cy="225" r="5" fill="#AA94DE"/></g></svg>